<svg width="34" height="34" viewBox="0 0 34 34" fill="none" xmlns="http://www.w3.org/2000/svg">
<path d="M29.5999 14.2H4.3999M22.5999 3V8.6M11.3999 3V8.6M12.7999 22.6L15.5999 25.4L21.8999 19.1M11.1199 31H22.8799C25.2322 31 26.4082 31 27.3067 30.5422C28.097 30.1396 28.7395 29.4971 29.1421 28.7068C29.5999 27.8083 29.5999 26.6323 29.5999 24.28V12.52C29.5999 10.1678 29.5999 8.99166 29.1421 8.09324C28.7395 7.30296 28.097 6.66044 27.3067 6.25777C26.4082 5.8 25.2322 5.8 22.8799 5.8H11.1199C8.76768 5.8 7.59157 5.8 6.69314 6.25777C5.90286 6.66044 5.26034 7.30296 4.85767 8.09324C4.3999 8.99166 4.3999 10.1678 4.3999 12.52V24.28C4.3999 26.6323 4.3999 27.8083 4.85767 28.7068C5.26034 29.4971 5.90286 30.1396 6.69314 30.5422C7.59157 31 8.76768 31 11.1199 31Z" stroke="#6739D2" stroke-width="3" stroke-linecap="round" stroke-linejoin="round"/>
</svg>
