<svg width="16" height="20" viewBox="0 0 16 20" fill="none" xmlns="http://www.w3.org/2000/svg">
<path d="M9.66666 1.8913V5.33341C9.66666 5.80012 9.66666 6.03348 9.75749 6.21174C9.83741 6.36854 9.96483 6.49602 10.1217 6.57592C10.2999 6.66675 10.5332 6.66675 11 6.66675H14.4421M9.66666 14.1667H4.66666M11.3333 10.8334H4.66666M14.6667 8.32354V14.3334C14.6667 15.7335 14.6667 16.4335 14.3942 16.9684C14.1545 17.4388 13.7721 17.8212 13.3017 18.0609C12.7668 18.3334 12.0668 18.3334 10.6667 18.3334H5.33333C3.93319 18.3334 3.23313 18.3334 2.69835 18.0609C2.22794 17.8212 1.8455 17.4388 1.60581 16.9684C1.33333 16.4335 1.33333 15.7335 1.33333 14.3334V5.66669C1.33333 4.26655 1.33333 3.56649 1.60581 3.03171C1.8455 2.5613 2.22794 2.17885 2.69835 1.93917C3.23313 1.66669 3.93319 1.66669 5.33333 1.66669H8.00983C8.62124 1.66669 8.92699 1.66669 9.21474 1.73576C9.46983 1.797 9.71366 1.89801 9.93741 2.03509C10.1897 2.18969 10.4058 2.40588 10.8382 2.83826L13.4951 5.49511C13.9275 5.9275 14.1437 6.14369 14.2982 6.39598C14.4353 6.61965 14.5363 6.86352 14.5976 7.1186C14.6667 7.40633 14.6667 7.71206 14.6667 8.32354Z" stroke="#141519" stroke-width="1.5" stroke-linecap="round" stroke-linejoin="round"/>
</svg>
