<svg width="20" height="20" viewBox="0 0 20 20" fill="none" xmlns="http://www.w3.org/2000/svg">
<path d="M10 12.5C11.3808 12.5 12.5 11.3808 12.5 10C12.5 8.61927 11.3808 7.50002 10 7.50002C8.61926 7.50002 7.50001 8.61927 7.50001 10C7.50001 11.3808 8.61926 12.5 10 12.5Z" stroke="#141519" stroke-width="1.5" stroke-linecap="round" stroke-linejoin="round"/>
<path d="M15.6061 12.2728C15.5053 12.5013 15.4752 12.7547 15.5197 13.0004C15.5643 13.2462 15.6814 13.473 15.8561 13.6515L15.9015 13.697C16.0424 13.8377 16.1542 14.0048 16.2304 14.1888C16.3067 14.3727 16.3459 14.5699 16.3459 14.7689C16.3459 14.9681 16.3067 15.1653 16.2304 15.3492C16.1542 15.5331 16.0424 15.7002 15.9015 15.8409C15.7608 15.9818 15.5937 16.0935 15.4098 16.1698C15.2258 16.246 15.0287 16.2853 14.8296 16.2853C14.6304 16.2853 14.4333 16.246 14.2493 16.1698C14.0654 16.0935 13.8983 15.9818 13.7576 15.8409L13.7121 15.7954C13.5336 15.6209 13.3068 15.5037 13.0611 15.4591C12.8153 15.4145 12.5618 15.4446 12.3333 15.5454C12.1093 15.6415 11.9182 15.8009 11.7836 16.0042C11.649 16.2074 11.5768 16.4456 11.5758 16.6894V16.8182C11.5758 17.22 11.4162 17.6054 11.132 17.8896C10.8478 18.1737 10.4624 18.3334 10.0606 18.3334C9.65876 18.3334 9.27342 18.1737 8.98926 17.8896C8.70509 17.6054 8.54542 17.22 8.54542 16.8182V16.75C8.53959 16.4993 8.45842 16.2561 8.31251 16.0521C8.1666 15.848 7.96268 15.6927 7.72728 15.6061C7.49878 15.5053 7.24531 15.4752 6.99956 15.5197C6.75381 15.5643 6.52704 15.6814 6.34849 15.8561L6.30304 15.9015C6.16232 16.0424 5.99521 16.1542 5.81128 16.2304C5.62734 16.3067 5.43018 16.3459 5.23106 16.3459C5.03196 16.3459 4.83479 16.3067 4.65086 16.2304C4.46691 16.1542 4.29981 16.0424 4.1591 15.9015C4.01822 15.7609 3.90646 15.5937 3.83022 15.4098C3.75397 15.2259 3.71472 15.0287 3.71472 14.8296C3.71472 14.6304 3.75397 14.4333 3.83022 14.2494C3.90646 14.0654 4.01822 13.8984 4.1591 13.7576L4.20455 13.7121C4.3792 13.5336 4.49636 13.3069 4.54092 13.0611C4.58548 12.8154 4.5554 12.5619 4.45455 12.3334C4.35852 12.1093 4.19906 11.9182 3.99581 11.7836C3.79256 11.649 3.55439 11.5768 3.31061 11.5758H3.18182C2.77998 11.5758 2.3946 11.4162 2.11045 11.132C1.82631 10.8479 1.66667 10.4624 1.66667 10.0606C1.66667 9.65877 1.82631 9.27344 2.11045 8.98927C2.3946 8.7051 2.77998 8.54544 3.18182 8.54544H3.25001C3.50076 8.5396 3.74395 8.45844 3.94796 8.31253C4.15197 8.16661 4.30736 7.9627 4.39395 7.7273C4.49479 7.4988 4.52487 7.24533 4.48031 6.99958C4.43576 6.75382 4.3186 6.52705 4.14395 6.3485L4.09849 6.30305C3.95761 6.16234 3.84586 5.99523 3.76961 5.8113C3.69336 5.62735 3.65411 5.4302 3.65411 5.23108C3.65411 5.03197 3.69336 4.8348 3.76961 4.65087C3.84586 4.46693 3.95761 4.29983 4.09849 4.15911C4.23921 4.01824 4.40631 3.90648 4.59025 3.83024C4.77418 3.75399 4.97135 3.71474 5.17046 3.71474C5.36957 3.71474 5.56674 3.75399 5.75067 3.83024C5.93461 3.90648 6.10171 4.01824 6.24243 4.15911L6.28788 4.20456C6.46643 4.37921 6.6932 4.49637 6.93896 4.54094C7.18471 4.5855 7.43817 4.55541 7.66667 4.45456H7.72728C7.95135 4.35854 8.14245 4.19908 8.27705 3.99583C8.41167 3.79258 8.48392 3.5544 8.48484 3.31063V3.18184C8.48484 2.78 8.64451 2.39461 8.92867 2.11046C9.21276 1.82632 9.59817 1.66669 10 1.66669C10.4018 1.66669 10.7873 1.82632 11.0713 2.11046C11.3555 2.39461 11.5152 2.78 11.5152 3.18184V3.25002C11.5161 3.4938 11.5883 3.73197 11.723 3.93522C11.8576 4.13847 12.0487 4.29793 12.2728 4.39396C12.5013 4.4948 12.7547 4.52489 13.0004 4.48033C13.2462 4.43577 13.473 4.31861 13.6515 4.14396L13.697 4.0985C13.8377 3.95763 14.0048 3.84588 14.1888 3.76963C14.3727 3.69338 14.5698 3.65413 14.7689 3.65413C14.9681 3.65413 15.1653 3.69338 15.3492 3.76963C15.5331 3.84588 15.7002 3.95763 15.8409 4.0985C15.9818 4.23922 16.0935 4.40633 16.1698 4.59026C16.246 4.7742 16.2853 4.97136 16.2853 5.17048C16.2853 5.36959 16.246 5.56675 16.1698 5.75069C16.0935 5.93462 15.9818 6.10173 15.8409 6.24245L15.7954 6.2879C15.6208 6.46645 15.5037 6.69321 15.4591 6.93897C15.4145 7.18472 15.4446 7.43819 15.5454 7.66669V7.7273C15.6415 7.95136 15.8009 8.14246 16.0042 8.27706C16.2074 8.41169 16.4456 8.48394 16.6894 8.48485H16.8182C17.22 8.48485 17.6054 8.64452 17.8896 8.92869C18.1737 9.21277 18.3333 9.59819 18.3333 10C18.3333 10.4019 18.1737 10.7873 17.8896 11.0714C17.6054 11.3555 17.22 11.5152 16.8182 11.5152H16.75C16.5063 11.5161 16.2681 11.5884 16.0648 11.723C15.8616 11.8576 15.7021 12.0487 15.6061 12.2728Z" stroke="#141519" stroke-width="1.5" stroke-linecap="round" stroke-linejoin="round"/>
</svg>
