<svg width="20" height="20" viewBox="0 0 20 20" fill="none" xmlns="http://www.w3.org/2000/svg">
<g clip-path="url(#clip0_105_452)">
<path d="M10 6.66669V10M10 13.3334H10.0083M1.66667 7.1023V12.8978C1.66667 13.1015 1.66667 13.2034 1.6897 13.2994C1.71011 13.3844 1.74378 13.4657 1.78947 13.5403C1.84101 13.6244 1.91307 13.6964 2.0572 13.8405L6.15948 17.9429C6.30361 18.0869 6.37567 18.159 6.45977 18.2105C6.53433 18.2563 6.61561 18.2899 6.70065 18.3104C6.79655 18.3334 6.89846 18.3334 7.10229 18.3334H12.8978C13.1015 18.3334 13.2034 18.3334 13.2993 18.3104C13.3844 18.2899 13.4657 18.2563 13.5403 18.2105C13.6243 18.159 13.6964 18.0869 13.8405 17.9429L17.9428 13.8405C18.0869 13.6964 18.159 13.6244 18.2105 13.5403C18.2563 13.4657 18.2899 13.3844 18.3103 13.2994C18.3333 13.2034 18.3333 13.1015 18.3333 12.8978V7.1023C18.3333 6.89848 18.3333 6.79657 18.3103 6.70066C18.2899 6.61563 18.2563 6.53435 18.2105 6.45979C18.159 6.37569 18.0869 6.30362 17.9428 6.1595L13.8405 2.05721C13.6964 1.91309 13.6243 1.84102 13.5403 1.78949C13.4657 1.7438 13.3844 1.71013 13.2993 1.68971C13.2034 1.66669 13.1015 1.66669 12.8978 1.66669H7.10229C6.89846 1.66669 6.79655 1.66669 6.70065 1.68971C6.61561 1.71013 6.53433 1.7438 6.45977 1.78949C6.37567 1.84102 6.30361 1.91309 6.15948 2.05721L2.0572 6.1595C1.91307 6.30362 1.84101 6.37569 1.78947 6.45979C1.74378 6.53435 1.71011 6.61563 1.6897 6.70066C1.66667 6.79657 1.66667 6.89848 1.66667 7.1023Z" stroke="#141519" stroke-width="1.5" stroke-linecap="round" stroke-linejoin="round"/>
</g>
<defs>
<clipPath id="clip0_105_452">
<rect width="20" height="20" fill="white"/>
</clipPath>
</defs>
</svg>
